<svg width="21" height="18" viewBox="0 0 21 18" fill="none" xmlns="http://www.w3.org/2000/svg">
<path d="M0.5 1.8241C0.5 1.03161 1.13973 0.388916 1.92857 0.388916H19.0714C19.8616 0.388916 20.5 1.03161 20.5 1.8241C20.5 2.61794 19.8616 3.25929 19.0714 3.25929H1.92857C1.13973 3.25929 0.5 2.61794 0.5 1.8241ZM0.5 9.00003C0.5 8.20619 1.13973 7.56484 1.92857 7.56484H19.0714C19.8616 7.56484 20.5 8.20619 20.5 9.00003C20.5 9.79386 19.8616 10.4352 19.0714 10.4352H1.92857C1.13973 10.4352 0.5 9.79386 0.5 9.00003ZM19.0714 17.6111H1.92857C1.13973 17.6111 0.5 16.9698 0.5 16.176C0.5 15.3821 1.13973 14.7408 1.92857 14.7408H19.0714C19.8616 14.7408 20.5 15.3821 20.5 16.176C20.5 16.9698 19.8616 17.6111 19.0714 17.6111Z" fill="#00447B"/>
</svg>
