<svg width="20" height="20" viewBox="0 0 20 20" fill="none" xmlns="http://www.w3.org/2000/svg">
<path d="M19.4125 16.7541C20.1938 17.5354 20.1938 18.801 19.4125 19.5822C19.025 19.9729 18.5125 20.1666 18 20.1666C17.4875 20.1666 16.9762 19.9713 16.5863 19.5807L10 12.9979L3.41438 19.5791C3.02375 19.9729 2.51187 20.1666 2 20.1666C1.48813 20.1666 0.976875 19.9729 0.585938 19.5791C-0.195312 18.7979 -0.195312 17.5322 0.585938 16.751L7.17344 10.1635L0.585938 3.5791C-0.195312 2.79785 -0.195312 1.53223 0.585938 0.750977C1.36719 -0.0302734 2.63281 -0.0302734 3.41406 0.750977L10 7.3416L16.5875 0.754102C17.3687 -0.0271482 18.6344 -0.0271482 19.4156 0.754102C20.1969 1.53535 20.1969 2.80098 19.4156 3.58223L12.8281 10.1697L19.4125 16.7541Z" fill="#CCCCCC"/>
</svg>
