<svg width="40" height="40" viewBox="0 0 40 40" fill="none" xmlns="http://www.w3.org/2000/svg">
<rect width="40" height="40" rx="8" fill="#F1F1F1"/>
<path d="M15.3906 16.0968C17.1281 14.3596 20.0156 14.3596 21.7531 16.0968C23.3156 17.6593 23.5469 20.1499 22.2625 21.9468L22.2281 21.9968C21.9063 22.4437 21.2813 22.5499 20.8344 22.2281C20.3844 21.9062 20.2781 21.2812 20.6 20.8343L20.6344 20.7843C21.35 19.7812 21.2375 18.4093 20.3656 17.5374C19.3844 16.5562 17.7875 16.5562 16.8031 17.5374L13.2969 21.0468C12.3122 22.0031 12.3122 23.6249 13.2969 24.6093C14.1656 25.4812 15.5406 25.5937 16.5406 24.8781L16.5906 24.8156C17.0406 24.5218 17.6656 24.6249 17.9844 25.0749C18.3063 25.5249 18.2031 26.1499 17.7531 26.4718L17.7031 26.5062C15.8781 27.7906 13.4438 27.5843 11.8816 26.0249C10.1169 24.2593 10.1169 21.3968 11.8816 19.6343L15.3906 16.0968ZM24.6094 23.8749C22.8438 25.6406 19.9844 25.6406 18.2188 23.8749C16.6563 22.3124 16.4531 19.8499 17.7375 18.0531L17.7719 18.0031C18.0656 17.5562 18.6906 17.4499 19.1656 17.7718C19.6156 18.0656 19.7219 18.6906 19.4 19.1656L19.3656 19.2156C18.65 20.1906 18.7625 21.5906 19.6344 22.4624C20.6156 23.4437 22.2125 23.4437 23.1969 22.4624L26.7031 18.9531C27.6875 17.9687 27.6875 16.3468 26.7031 15.3906C25.8344 14.5196 24.4594 14.4059 23.4594 15.1218L23.4094 15.1562C22.9594 15.4781 22.3344 15.3468 22.0156 14.9243C21.6938 14.4749 21.7969 13.8503 22.2469 13.5293L22.2969 13.4943C24.0938 12.2103 26.5563 12.414 28.1188 13.9762C29.8844 15.7406 29.8844 18.6031 28.1188 20.3656L24.6094 23.8749Z" fill="#00559A"/>
</svg>
