<svg width="13" height="10" viewBox="0 0 13 10" fill="none" xmlns="http://www.w3.org/2000/svg">
<path d="M10.6585 1.18496C9.89367 0.834027 9.07349 0.575467 8.21594 0.427379C8.20033 0.424522 8.18473 0.431664 8.17668 0.445949C8.07121 0.63356 7.95437 0.878311 7.87255 1.07068C6.9502 0.932595 6.03258 0.932595 5.12916 1.07068C5.04733 0.874026 4.92624 0.63356 4.82029 0.445949C4.81225 0.43214 4.79664 0.424998 4.78103 0.427379C3.92396 0.574991 3.10378 0.833551 2.33847 1.18496C2.33185 1.18782 2.32617 1.19258 2.32239 1.19877C0.766696 3.52296 0.340525 5.79 0.54959 8.02895C0.550536 8.0399 0.556685 8.05038 0.565199 8.05704C1.5916 8.81082 2.58585 9.26842 3.56164 9.57174C3.57725 9.5765 3.59381 9.57079 3.60374 9.55793C3.83456 9.24271 4.04032 8.91034 4.21674 8.56083C4.22715 8.54036 4.21722 8.51607 4.19593 8.50798C3.86956 8.38417 3.5588 8.23323 3.25987 8.06181C3.23622 8.048 3.23433 8.01419 3.25609 7.998C3.31899 7.95086 3.3819 7.90181 3.44197 7.85229C3.45285 7.84324 3.46799 7.84134 3.48076 7.84705C5.44465 8.74368 7.57077 8.74368 9.51148 7.84705C9.52426 7.84086 9.53939 7.84277 9.55074 7.85181C9.61081 7.90134 9.67372 7.95086 9.7371 7.998C9.75886 8.01419 9.75744 8.048 9.73379 8.06181C9.43486 8.23656 9.1241 8.38417 8.79726 8.5075C8.77597 8.5156 8.76651 8.54036 8.77692 8.56083C8.95713 8.90986 9.16288 9.24223 9.38945 9.55745C9.39891 9.57079 9.41594 9.5765 9.43155 9.57174C10.4121 9.26842 11.4063 8.81082 12.4327 8.05704C12.4417 8.05038 12.4474 8.04038 12.4483 8.02943C12.6985 5.44097 12.0293 3.1925 10.6741 1.19925C10.6708 1.19258 10.6651 1.18782 10.6585 1.18496ZM4.51 6.66568C3.91876 6.66568 3.43157 6.12284 3.43157 5.45621C3.43157 4.78957 3.9093 4.24673 4.51 4.24673C5.11544 4.24673 5.5979 4.79433 5.58844 5.45621C5.58844 6.12284 5.11071 6.66568 4.51 6.66568ZM8.49738 6.66568C7.90613 6.66568 7.41894 6.12284 7.41894 5.45621C7.41894 4.78957 7.89667 4.24673 8.49738 4.24673C9.10281 4.24673 9.58527 4.79433 9.57581 5.45621C9.57581 6.12284 9.10281 6.66568 8.49738 6.66568Z" fill="#00559A"/>
</svg>
