<svg width="40" height="40" viewBox="0 0 40 40" fill="none" xmlns="http://www.w3.org/2000/svg">
<rect width="40" height="40" rx="8" fill="#F1F1F1"/>
<path d="M25.5447 15.3449C24.5249 14.877 23.4313 14.5323 22.2879 14.3348C22.2671 14.331 22.2463 14.3405 22.2356 14.3596C22.0949 14.6097 21.9392 14.9361 21.8301 15.1926C20.6003 15.0084 19.3768 15.0084 18.1722 15.1926C18.0631 14.9303 17.9017 14.6097 17.7604 14.3596C17.7497 14.3412 17.7289 14.3316 17.708 14.3348C16.5653 14.5316 15.4717 14.8764 14.4513 15.3449C14.4425 15.3487 14.4349 15.3551 14.4298 15.3633C12.3556 18.4623 11.7874 21.485 12.0661 24.4702C12.0674 24.4848 12.0756 24.4988 12.0869 24.5077C13.4555 25.5127 14.7811 26.1229 16.0822 26.5273C16.103 26.5336 16.1251 26.526 16.1383 26.5089C16.4461 26.0886 16.7204 25.6454 16.9557 25.1794C16.9695 25.1521 16.9563 25.1197 16.9279 25.1089C16.4928 24.9439 16.0784 24.7426 15.6798 24.514C15.6483 24.4956 15.6458 24.4506 15.6748 24.429C15.7587 24.3661 15.8425 24.3007 15.9226 24.2347C15.9371 24.2226 15.9573 24.2201 15.9743 24.2277C18.5929 25.4232 21.4277 25.4232 24.0153 24.2277C24.0323 24.2195 24.0525 24.222 24.0677 24.2341C24.1478 24.3001 24.2316 24.3661 24.3161 24.429C24.3451 24.4506 24.3433 24.4956 24.3117 24.514C23.9131 24.7471 23.4988 24.9439 23.063 25.1083C23.0346 25.1191 23.022 25.1521 23.0359 25.1794C23.2762 25.6448 23.5505 26.0879 23.8526 26.5082C23.8652 26.526 23.8879 26.5336 23.9087 26.5273C25.2161 26.1229 26.5418 25.5127 27.9103 24.5077C27.9223 24.4988 27.9298 24.4855 27.9311 24.4709C28.2647 21.0196 27.3723 18.0216 25.5655 15.364C25.5611 15.3551 25.5535 15.3487 25.5447 15.3449ZM17.3467 22.6525C16.5583 22.6525 15.9088 21.9288 15.9088 21.0399C15.9088 20.1511 16.5457 19.4273 17.3467 19.4273C18.1539 19.4273 18.7972 20.1574 18.7846 21.0399C18.7846 21.9288 18.1476 22.6525 17.3467 22.6525ZM22.6632 22.6525C21.8748 22.6525 21.2253 21.9288 21.2253 21.0399C21.2253 20.1511 21.8622 19.4273 22.6632 19.4273C23.4704 19.4273 24.1137 20.1574 24.1011 21.0399C24.1011 21.9288 23.4704 22.6525 22.6632 22.6525Z" fill="#00559A"/>
</svg>
