<svg width="188" height="50" viewBox="0 0 188 50" fill="none" xmlns="http://www.w3.org/2000/svg">
<path d="M6.29999 7.5H14.5L30 26.3V7.5H39.7V42.6H32.3L16.5 22.2M16.1 25.9V42.7H6.29999V11.8" fill="#005496"/>
<path d="M50.8 22.9H52.7V15.2H70.3V7.5H42.8V42.7H52.7V30.6H50.8V22.9Z" fill="#005496"/>
<path d="M67.1 22.8999H54.1V30.5999H67.1V22.8999Z" fill="#005496"/>
<path d="M93.5 17.3H83.6V42.7001H93.5V17.3Z" fill="#005496"/>
<path d="M104.3 7.5H72.8V15.4H83.6V13.9H93.5V15.4H104.3V7.5Z" fill="#005496"/>
<path d="M112.018 29.012V21.27H112.911V24.1279H112.986C113.052 24.0271 113.142 23.8985 113.258 23.7423C113.377 23.5835 113.546 23.4424 113.765 23.3189C113.987 23.1929 114.287 23.1299 114.665 23.1299C115.154 23.1299 115.585 23.2521 115.958 23.4966C116.331 23.741 116.622 24.0875 116.831 24.5361C117.04 24.9847 117.145 25.514 117.145 26.1238C117.145 26.7388 117.04 27.2718 116.831 27.7229C116.622 28.1715 116.332 28.5193 115.961 28.7662C115.591 29.0107 115.164 29.1329 114.68 29.1329C114.307 29.1329 114.008 29.0712 113.784 28.9477C113.56 28.8217 113.387 28.6793 113.266 28.5205C113.145 28.3592 113.052 28.2257 112.986 28.1198H112.88V29.012H112.018ZM112.896 26.1087C112.896 26.5472 112.96 26.9341 113.088 27.2693C113.217 27.6019 113.405 27.8628 113.652 28.0518C113.899 28.2383 114.201 28.3315 114.559 28.3315C114.932 28.3315 115.243 28.2332 115.493 28.0367C115.745 27.8376 115.934 27.5704 116.06 27.2352C116.188 26.8975 116.252 26.522 116.252 26.1087C116.252 25.7005 116.189 25.3325 116.063 25.0049C115.94 24.6747 115.752 24.4139 115.5 24.2224C115.251 24.0283 114.937 23.9313 114.559 23.9313C114.196 23.9313 113.891 24.0233 113.644 24.2073C113.397 24.3887 113.211 24.6432 113.085 24.9709C112.959 25.296 112.896 25.6753 112.896 26.1087ZM118.876 31.1894C118.725 31.1894 118.59 31.1768 118.471 31.1516C118.353 31.1289 118.271 31.1062 118.226 31.0835L118.452 30.2972C118.669 30.3527 118.861 30.3729 119.027 30.3577C119.193 30.3426 119.341 30.2683 119.469 30.1347C119.6 30.0036 119.72 29.7907 119.829 29.4958L119.995 29.0422L117.848 23.2055H118.815L120.418 27.8325H120.479L122.082 23.2055H123.049L120.585 29.8587C120.474 30.1586 120.336 30.4069 120.173 30.6035C120.009 30.8025 119.818 30.95 119.602 31.0457C119.387 31.1415 119.146 31.1894 118.876 31.1894Z" fill="#005496"/>
<path d="M131.1 31.1998H126.8V30.8998H128.1L129.8 22.1998H128.6V21.7998H132.9V22.1998H131.6L129.9 30.8998H131.1V31.1998ZM136.9 31.1998H132.4V30.8998H133.7L130.9 26.2998L135.4 22.1998H134V21.7998H137.3V22.1998H136.1L132.4 25.5998L135.7 30.8998H136.9V31.1998Z" fill="#005496"/>
<path d="M137.1 27.6C137.1 26.3 137.6 25 138.6 23.7C139.2 23 139.8 22.4 140.5 22.1C141.2 21.7 141.9 21.5 142.6 21.5C143.6 21.5 144.4 21.9 145.1 22.6C145.7 23.3 146.1 24.2 146.1 25.3C146.1 26.6 145.6 27.9 144.6 29.1C143.4 30.6 142.1 31.3 140.6 31.3C139.6 31.3 138.8 30.9 138.1 30.2C137.4 29.6 137.1 28.7 137.1 27.6ZM142.4 21.9C141.8 21.9 141.3 22.1 140.9 22.5C140.5 22.9 140.2 23.5 139.9 24.2C139.6 25 139.4 25.8 139.2 26.6C139 27.4 139 28.1 139 28.8C139 30.3 139.6 31 140.7 31C141.8 31 142.6 30.2 143.2 28.6C143.5 27.9 143.7 27.1 143.8 26.3C144 25.5 144 24.7 144 24.1C144.1 22.7 143.6 21.9 142.4 21.9Z" fill="#005496"/>
<path d="M149.5 31.1998H146.7V30.7998H147.9L149.6 22.0998H148.4V21.7998H151.8L152.5 27.8998H152.6L155.7 21.7998H159V22.0998H157.7L156 30.7998H157.2V31.1998H153V30.7998H154.3L155.9 22.4998H155.7L151.4 31.1998H151L150.1 22.4998H150L148.3 30.7998H149.5V31.1998Z" fill="#005496"/>
<path d="M162.4 31.1999H158.6V30.8999H159.5L161.2 22.1999H160V21.8999H164.1C166.1 21.8999 167.2 22.6999 167.2 24.1999C167.2 25.2999 166.7 26.0999 165.8 26.4999C165.4 26.6999 164.9 26.7999 164.3 26.8999C164 26.8999 163.4 26.9999 162.6 26.9999H162L161.2 30.9999H162.4V31.1999ZM162.1 26.3999H162.8C163.3 26.3999 163.6 26.3999 163.9 26.2999C164.1 26.2999 164.4 26.0999 164.6 25.8999C164.9 25.6999 165 25.2999 165.2 24.9999C165.3 24.5999 165.4 24.1999 165.4 23.6999C165.4 23.0999 165.3 22.5999 165 22.3999C164.7 22.1999 164.2 22.0999 163.5 22.0999H163L162.1 26.3999Z" fill="#005496"/>
<path d="M167.8 31.1999H165.2V30.8999H166L171.9 21.5999H172.4L172.6 30.8999H173.9V31.1999H169.7V30.8999H170.9V28.3999H168L166.4 30.8999H167.8V31.1999ZM170.7 27.8999L170.6 24.0999L168.2 27.8999H170.7Z" fill="#005496"/>
<path d="M175.4 31.1999H175.1L175.5 28.4999H176C176.1 29.2999 176.4 29.9999 176.8 30.3999C177.2 30.7999 177.7 30.9999 178.4 30.9999C179 30.9999 179.5 30.7999 179.9 30.3999C180.3 29.9999 180.5 29.5999 180.5 28.9999C180.5 28.6999 180.4 28.3999 180.2 28.0999C180 27.7999 179.8 27.5999 179.4 27.3999L178.2 26.7999C177.5 26.3999 177 26.0999 176.8 25.7999C176.5 25.3999 176.3 24.8999 176.3 24.1999C176.3 23.3999 176.5 22.6999 177 22.1999C177.5 21.6999 178.1 21.3999 178.9 21.3999C179.7 21.3999 180.3 21.6999 180.8 22.1999L181.5 21.5999H181.7L181.3 24.0999H180.9C180.7 22.5999 180 21.7999 178.9 21.7999C178.3 21.7999 177.9 21.8999 177.5 22.1999C177.1 22.4999 177 22.8999 177 23.2999C177 23.5999 177.1 23.8999 177.3 23.9999C177.4 24.0999 177.7 24.2999 178.1 24.4999L179.4 25.1999C180 25.4999 180.5 25.8999 180.8 26.2999C181.1 26.6999 181.2 27.2999 181.2 27.8999C181.2 28.7999 180.9 29.5999 180.3 30.1999C179.7 30.7999 178.9 31.0999 178 31.0999C177.2 31.0999 176.6 30.7999 176.1 30.2999L175.4 31.1999Z" fill="#005496"/>
<path d="M136 34.5C135.9 34.7 136 34.7 136.1 34.7H135.8C135.8 34.7 135.9 34.6 136 34.5L136.3 33.7H136.4L136.7 34.5999C136.7 34.6999 136.8 34.7 136.9 34.7H136.4C136.5 34.7 136.6 34.6999 136.5 34.5999L136.4 34.2999H136V34.5ZM136.2 33.9L136 34.2999H136.3L136.2 33.9Z" fill="#005496"/>
<path d="M137.4 34.7C137.5 34.7 137.6 34.6 137.6 34.5V33.9C137.6 33.8 137.5 33.7 137.4 33.7H137.8L138.1 34.4L138.4 33.7H138.8C138.7 33.7 138.6 33.6999 138.6 33.7999V34.5999C138.6 34.6999 138.6 34.7 138.8 34.7H138.3C138.4 34.7 138.4 34.6999 138.4 34.5999V33.7999L138.1 34.7H138L137.6 33.7999V34.5C137.6 34.6 137.6 34.7 137.8 34.7H137.4Z" fill="#005496"/>
<path d="M139.5 34.5C139.4 34.7 139.5 34.7 139.6 34.7H139.3C139.4 34.7 139.4 34.6 139.5 34.5L139.8 33.7H139.9L140.2 34.5999C140.2 34.6999 140.3 34.7 140.4 34.7H139.9C140 34.7 140.1 34.6999 140 34.5999L139.9 34.2999H139.6L139.5 34.5ZM139.8 33.9L139.6 34.2999H139.9L139.8 33.9Z" fill="#005496"/>
<path d="M141.2 33.9V34.5C141.2 34.6 141.2 34.7 141.4 34.7H141C141.1 34.7 141.2 34.6 141.2 34.5V33.9C141.2 33.8 141.1 33.7 141 33.7H141.3L141.9 34.4V33.9C141.9 33.8 141.8 33.7 141.7 33.7H142.1C142 33.7 141.9 33.8 141.9 33.9V34.7H141.8L141.2 33.9Z" fill="#005496"/>
<path d="M142.8 34.5C142.7 34.7 142.8 34.7 142.9 34.7H142.6C142.7 34.7 142.7 34.6 142.8 34.5L143.1 33.7H143.2L143.5 34.5999C143.5 34.6999 143.6 34.7 143.7 34.7H143.2C143.3 34.7 143.4 34.6999 143.3 34.5999L143.2 34.2999H142.9L142.8 34.5ZM143 33.9L142.8 34.2999H143.1C143.2 34.2999 143 33.9 143 33.9Z" fill="#005496"/>
<path d="M144.3 34.7C144.4 34.7 144.5 34.6999 144.5 34.5999V33.7C144.4 33.7 144.3 33.8 144.2 34V33.7H145.1V34C145 33.8 144.9 33.7 144.8 33.7V34.5999C144.8 34.6999 144.8 34.7 145 34.7H144.3Z" fill="#005496"/>
<path d="M146.6 34.7C146.7 34.7 146.8 34.6999 146.8 34.5999V33.7999C146.8 33.6999 146.8 33.7 146.6 33.7H147.1C147 33.7 147 33.6999 147 33.7999V34.2H147.4V33.7999C147.4 33.6999 147.4 33.7 147.3 33.7H147.8C147.7 33.7 147.6 33.6999 147.6 33.7999V34.5999C147.6 34.6999 147.6 34.7 147.8 34.7H147.3C147.4 34.7 147.4 34.6999 147.4 34.5999V34.2H147V34.5999C147 34.6999 147 34.7 147.1 34.7H146.6Z" fill="#005496"/>
<path d="M148.5 34.5C148.4 34.7 148.5 34.7 148.6 34.7H148.3C148.3 34.7 148.4 34.6 148.5 34.5L148.8 33.7H148.9L149.2 34.5999C149.2 34.6999 149.3 34.7 149.4 34.7H148.9C149 34.7 149.1 34.6999 149 34.5999L148.9 34.2999H148.6L148.5 34.5ZM148.7 33.9L148.5 34.2999H148.8C148.9 34.2999 148.7 33.9 148.7 33.9Z" fill="#005496"/>
<path d="M150 34.7C150.1 34.7 150.2 34.6999 150.2 34.5999V33.7C150.1 33.7 150 33.8 149.9 34V33.7H150.8V34C150.7 33.8 150.6 33.7 150.5 33.7V34.5999C150.5 34.6999 150.5 34.7 150.7 34.7H150Z" fill="#005496"/>
<path d="M151.4 34.7C151.5 34.7 151.6 34.6999 151.6 34.5999V33.7999C151.6 33.6999 151.6 33.7 151.4 33.7H151.9C151.8 33.7 151.7 33.6999 151.7 33.7999V34.5999C151.7 34.6999 151.7 34.7 151.9 34.7H151.4Z" fill="#005496"/>
<path d="M153.6 33.9V34.5C153.6 34.6 153.6 34.7 153.8 34.7H153.4C153.5 34.7 153.6 34.6 153.6 34.5V33.9C153.6 33.8 153.5 33.7 153.4 33.7H153.7L154.3 34.4V33.9C154.3 33.8 154.2 33.7 154.1 33.7H154.5C154.4 33.7 154.3 33.8 154.3 33.9V34.7H154.2L153.6 33.9Z" fill="#005496"/>
<path d="M155.2 34.4V33.7999C155.2 33.6999 155.2 33.7 155 33.7H155.5C155.4 33.7 155.4 33.6999 155.4 33.7999V34.4C155.4 34.6 155.5 34.7 155.7 34.7C155.8 34.7 155.8 34.6999 155.9 34.5999C156 34.4999 156 34.5 156 34.4V34C156 33.9 155.9 33.7999 155.8 33.7999H156.2C156.1 33.7999 156 33.9 156 34V34.4C156 34.6 155.9 34.7999 155.6 34.7999C155.4 34.6999 155.2 34.6 155.2 34.4Z" fill="#005496"/>
<path d="M157.2 34.5999C157.2 34.6999 157.2 34.7 157.3 34.7H156.8C156.9 34.7 157 34.6999 157 34.5999V33.7999C157 33.6999 157 33.7 156.8 33.7H157.3C157.6 33.7 157.7 33.8 157.7 33.9C157.7 34 157.6 34.1 157.4 34.2C157.6 34.2 157.7 34.3 157.7 34.4V34.5C157.7 34.6 157.7 34.5999 157.9 34.5999C157.8 34.5999 157.8 34.5999 157.7 34.5999C157.5 34.5999 157.5 34.5 157.5 34.4V34.2999C157.5 34.1999 157.4 34.0999 157.3 34.0999H157.2V34.5999ZM157.3 34.2C157.5 34.2 157.5 34.1 157.5 34C157.5 33.9 157.4 33.7999 157.3 33.7999H157.2L157.3 34.2Z" fill="#005496"/>
<path d="M158.6 34.5C158.5 34.7 158.6 34.7 158.7 34.7H158.4C158.4 34.7 158.5 34.6 158.6 34.5L158.9 33.7H159L159.3 34.5999C159.3 34.6999 159.4 34.7 159.5 34.7H159C159.1 34.7 159.2 34.6999 159.1 34.5999L159 34.2999H158.7L158.6 34.5ZM158.8 33.9L158.6 34.2999H158.9C159 34.2999 158.8 33.9 158.8 33.9Z" fill="#005496"/>
<path d="M160.2 33.9V34.5C160.2 34.6 160.2 34.7 160.4 34.7H160C160.1 34.7 160.2 34.6 160.2 34.5V33.9C160.2 33.8 160.1 33.7 160 33.7H160.3L160.9 34.4V33.9C160.9 33.8 160.8 33.7 160.7 33.7H161.1C161 33.7 160.9 33.8 160.9 33.9V34.7H160.8L160.2 33.9Z" fill="#005496"/>
<path d="M161.7 34.7C161.8 34.7 161.9 34.6999 161.9 34.5999V33.7999C161.9 33.6999 161.9 33.7 161.7 33.7H162.2C162.1 33.7 162 33.6999 162 33.7999V34.5999C162 34.6999 162 34.7 162.2 34.7H161.7Z" fill="#005496"/>
<path d="M164.1 34.5999C164.1 34.6999 164.1 34.7 164.2 34.7H163.7C163.8 34.7 163.9 34.6999 163.9 34.5999V33.7999C163.9 33.6999 163.9 33.7 163.7 33.7H164.2C164.5 33.7 164.6 33.8 164.6 33.9C164.6 34 164.5 34.1 164.3 34.2C164.5 34.2 164.6 34.3 164.6 34.4V34.5C164.6 34.6 164.6 34.5999 164.8 34.5999C164.7 34.5999 164.7 34.5999 164.6 34.5999C164.4 34.5999 164.4 34.5 164.4 34.4V34.2999C164.4 34.1999 164.3 34.0999 164.2 34.0999H164.1V34.5999ZM164.2 34.2C164.4 34.2 164.4 34.1 164.4 34C164.4 33.9 164.3 33.7999 164.2 33.7999H164.1L164.2 34.2Z" fill="#005496"/>
<path d="M165.5 34.5C165.4 34.7 165.5 34.7 165.6 34.7H165.3C165.3 34.7 165.4 34.6 165.5 34.5L165.8 33.7H165.9L166.2 34.5999C166.2 34.6999 166.3 34.7 166.4 34.7H165.9C166 34.7 166.1 34.6999 166 34.5999L165.9 34.2999H165.6L165.5 34.5ZM165.7 33.9L165.5 34.2999H165.8C165.9 34.2999 165.7 33.9 165.7 33.9Z" fill="#005496"/>
<path d="M167.3 34.5999C167.3 34.6999 167.3 34.7 167.4 34.7H166.9C167 34.7 167.1 34.6999 167.1 34.5999V33.7999C167.1 33.6999 167.1 33.7 166.9 33.7H167.4C167.3 33.7 167.3 33.6999 167.3 33.7999V34.2999L167.6 34C167.7 33.9 167.7 33.7999 167.6 33.7999H168C167.9 33.7999 167.8 33.9 167.6 34L167.5 34.0999L167.8 34.5999C167.9 34.6999 167.9 34.7999 168 34.7999H167.5C167.6 34.7999 167.6 34.8 167.6 34.7L167.4 34.2999L167.3 34.4V34.5999Z" fill="#005496"/>
<path d="M169.2 33.9C169.3 33.8 169.3 33.7 169.1 33.7H169.4C169.4 33.7 169.4 33.8 169.2 33.9L169 34.2999V34.5999C169 34.6999 169 34.7 169.2 34.7H168.7C168.8 34.7 168.9 34.6999 168.9 34.5999V34.2999L168.6 33.7999C168.6 33.6999 168.5 33.7 168.4 33.7H168.9C168.8 33.7 168.7 33.6999 168.8 33.7999L169 34.2L169.2 33.9Z" fill="#005496"/>
<path d="M170.1 34.5C170 34.7 170.1 34.7 170.2 34.7H169.9C170 34.7 170 34.6 170.1 34.5L170.4 33.7H170.5L170.8 34.5999C170.8 34.6999 170.9 34.7 171 34.7H170.5C170.6 34.7 170.7 34.6999 170.6 34.5999L170.5 34.2999H170.2L170.1 34.5ZM170.3 33.9L170.1 34.2999H170.4C170.5 34.2999 170.3 33.9 170.3 33.9Z" fill="#005496"/>
<path d="M171.6 34.7C171.7 34.7 171.8 34.6999 171.8 34.5999V33.7C171.7 33.7 171.6 33.8 171.5 34V33.7H172.4V34C172.3 33.8 172.2 33.7 172.1 33.7V34.5999C172.1 34.6999 172.1 34.7 172.3 34.7H171.6Z" fill="#005496"/>
</svg>
