<svg width="24" height="20" viewBox="0 0 24 20" fill="none" xmlns="http://www.w3.org/2000/svg">
<g clip-path="url(#clip0_1925_5979)">
<path d="M23.4546 4.64666L20.926 0.610294C20.7001 0.247957 20.2988 0.0258789 19.8702 0.0258789H4.12994C3.70136 0.0258789 3.30007 0.247957 3.07409 0.610294L0.54552 4.64666C-0.759675 6.73107 0.397468 9.62978 2.83643 9.96094C3.01175 9.98432 3.19097 9.99601 3.37019 9.99601C4.52344 9.99601 5.54422 9.48952 6.24552 8.7064C6.94682 9.48952 7.97149 9.99601 9.12084 9.99601C10.2741 9.99601 11.2949 9.48952 11.9962 8.7064C12.6975 9.48952 13.7221 9.99601 14.8715 9.99601C16.0247 9.99601 17.0455 9.48952 17.7468 8.7064C18.452 9.48952 19.4728 9.99601 20.6221 9.99601C20.8053 9.99601 20.9806 9.98432 21.1559 9.96094C23.6027 9.63367 24.7637 6.73497 23.4546 4.64666ZM20.6299 11.2467C20.2403 11.2467 19.8546 11.1882 19.4806 11.0986V14.9869H4.51955V11.0986C4.14552 11.1843 3.75981 11.2467 3.37019 11.2467C3.13643 11.2467 2.89877 11.2311 2.6689 11.1999C2.45071 11.1687 2.23643 11.1181 2.02994 11.0596V18.7272C2.02994 19.4168 2.58708 19.9739 3.27669 19.9739H20.7312C21.4208 19.9739 21.978 19.4168 21.978 18.7272V11.0596C21.7676 11.122 21.5572 11.1726 21.339 11.1999C21.1014 11.2311 20.8676 11.2467 20.6299 11.2467Z" fill="white"/>
</g>
<defs>
<clipPath id="clip0_1925_5979">
<rect width="24" height="19.9481" fill="white" transform="translate(0 0.0258789)"/>
</clipPath>
</defs>
</svg>
