<svg width="24" height="25" viewBox="0 0 24 25" fill="none" xmlns="http://www.w3.org/2000/svg">
<path d="M12 2.3335C10.0222 2.3335 8.08879 2.91999 6.4443 4.0188C4.79981 5.11761 3.51809 6.6794 2.76121 8.50666C2.00433 10.3339 1.8063 12.3446 2.19215 14.2844C2.578 16.2242 3.53041 18.006 4.92894 19.4046C6.32746 20.8031 8.10929 21.7555 10.0491 22.1413C11.9889 22.5272 13.9996 22.3292 15.8268 21.5723C17.6541 20.8154 19.2159 19.5337 20.3147 17.8892C21.4135 16.2447 22 14.3113 22 12.3335C22 11.0203 21.7413 9.71992 21.2388 8.50666C20.7363 7.29341 19.9997 6.19101 19.0711 5.26243C18.1425 4.33384 17.0401 3.59725 15.8268 3.0947C14.6136 2.59215 13.3132 2.3335 12 2.3335ZM12 20.3335C10.4178 20.3335 8.87104 19.8643 7.55544 18.9853C6.23985 18.1062 5.21447 16.8568 4.60897 15.395C4.00347 13.9332 3.84504 12.3246 4.15372 10.7728C4.4624 9.22093 5.22433 7.79546 6.34315 6.67664C7.46197 5.55782 8.88743 4.7959 10.4393 4.48721C11.9911 4.17853 13.5997 4.33696 15.0615 4.94246C16.5233 5.54796 17.7727 6.57334 18.6518 7.88893C19.5308 9.20453 20 10.7512 20 12.3335C20 14.4552 19.1572 16.4901 17.6569 17.9904C16.1566 19.4906 14.1217 20.3335 12 20.3335ZM16 11.3335H8C7.73479 11.3335 7.48043 11.4389 7.2929 11.6264C7.10536 11.8139 7 12.0683 7 12.3335C7 12.5987 7.10536 12.8531 7.2929 13.0406C7.48043 13.2281 7.73479 13.3335 8 13.3335H16C16.2652 13.3335 16.5196 13.2281 16.7071 13.0406C16.8946 12.8531 17 12.5987 17 12.3335C17 12.0683 16.8946 11.8139 16.7071 11.6264C16.5196 11.4389 16.2652 11.3335 16 11.3335Z" fill="#8D8D8D"/>
</svg>
